<svg
  width="75"
  height="75"
  viewBox="0 0 75 75"
  fill="none"
  xmlns="http://www.w3.org/2000/svg"
>
  <g id="logo">

    <path
      id="text"
      fill-rule="evenodd"
      clip-rule="evenodd"
      d="M36.1868 13.791L37.8827 16.0131L38.7053 15.9828L36.9281 13.6193C37.402 13.4638 37.8143 13.1633 38.1061 12.7608C38.3798 12.3414 38.5115 11.8459 38.4818 11.3467C38.4859 11.0102 38.4131 10.6771 38.2688 10.3727C38.1246 10.0682 37.9127 9.80035 37.6491 9.58925C37.0237 9.14762 36.26 8.94338 35.4962 9.01353L32.7949 9.02363L33.0285 16.0939H33.78L33.7089 13.8516L35.6181 13.791C35.8075 13.8014 35.9973 13.8014 36.1868 13.791ZM37.5858 12.0885C37.496 12.318 37.3544 12.5238 37.1718 12.6901C36.7183 13.0439 36.1534 13.2264 35.5775 13.2052L33.6886 13.2658L33.5667 9.73066L35.4962 9.65996C36.0597 9.61222 36.6225 9.75842 37.0906 10.0741C37.2825 10.2303 37.4362 10.4278 37.54 10.6518C37.6438 10.8758 37.695 11.1203 37.6897 11.3669C37.7112 11.6122 37.6756 11.8591 37.5858 12.0885ZM30.9064 15.7603L31.0587 16.3967L26.1639 17.538L24.5391 10.6495L29.2917 9.54858L29.4339 10.1748L25.3718 11.1141L25.9506 13.5585L29.5253 12.7201L29.6776 13.3463L26.0928 14.1746L26.7021 16.73L30.9064 15.7603ZM18.2019 13.1343L17.5215 13.4373L20.4665 19.8713L24.7723 17.9219L24.5083 17.3361L20.8829 18.9723L18.2019 13.1343ZM11.124 17.6492L11.7333 17.1947L15.6025 22.3459L18.7912 19.9723L19.1771 20.4874L15.3892 23.3055L11.124 17.6492ZM9.4278 27.3053L11.794 24.1641L13.825 24.5883L14.3023 23.9621L6.65542 22.3258L6.21875 22.9217L9.97618 29.7395L10.4433 29.1133L9.4278 27.3053ZM7.06163 23.0934L11.1237 24.0025L9.09268 26.7195L7.06163 23.0934ZM6.20901 29.8202L6.04653 30.5171L8.37208 31.1029C8.61833 31.7167 8.66103 32.3926 8.49394 33.0321C8.38284 33.5593 8.13814 34.0496 7.78307 34.4563C7.43756 34.8328 7.0004 35.1146 6.51367 35.2744C6.00558 35.4163 5.46801 35.4163 4.95992 35.2744C4.43594 35.1629 3.95392 34.9075 3.56865 34.5371C3.19382 34.1896 2.92315 33.7456 2.7867 33.2543C2.64078 32.737 2.6303 32.1911 2.75623 31.6686C2.82765 31.2662 2.98406 30.8836 3.21513 30.5458C3.4462 30.208 3.74668 29.9228 4.09672 29.7091L3.73114 29.1536C3.32274 29.3824 2.97471 29.7044 2.71561 30.0929C2.44185 30.5201 2.24591 30.9919 2.13676 31.4868C1.95441 32.1479 1.95441 32.8457 2.13676 33.5068C2.30114 34.1155 2.63566 34.6654 3.10151 35.0926C3.57461 35.5374 4.16113 35.8448 4.79743 35.9814C5.43235 36.126 6.09435 36.1016 6.71677 35.9107C7.32068 35.7217 7.86136 35.3725 8.28068 34.9007C8.72142 34.401 9.02257 33.795 9.15403 33.1432C9.26493 32.6736 9.29582 32.1888 9.24543 31.709C9.20189 31.256 9.0672 30.8163 8.84937 30.4161L6.20901 29.8202ZM43.2552 14.1343L42.8896 16.5483L42.1483 16.4372L42.524 14.0636L40.4219 9.01343L41.214 9.13463L43.0115 13.4374L46.058 9.87196L46.7689 10.0235L43.2552 14.1343ZM54.1823 14.8516L53.2988 13.7102L54.6901 13.5486V13.0537L53.2277 13.2557L53.7456 11.9023L53.309 11.7205L52.7606 13.0537L51.9786 11.9023L51.5826 12.2053L52.4762 13.3466L51.0342 13.5082V13.9931L52.4965 13.8011L51.9278 15.1243L52.3544 15.3061L52.9129 13.983L53.7964 15.1546L54.1823 14.8516ZM56.6906 21.851C56.4508 21.4833 56.3012 21.0647 56.2539 20.6289L56.8531 20.3663C56.898 20.7667 57.0297 21.1526 57.239 21.4975C57.4658 21.8843 57.7618 22.2266 58.1123 22.5076C58.4743 22.8523 58.9362 23.0749 59.4325 23.1439C59.6118 23.1604 59.7925 23.1332 59.9589 23.0645C60.1252 22.9959 60.2722 22.8879 60.3871 22.75C60.4713 22.6576 60.5355 22.5489 60.5757 22.4307C60.6159 22.3126 60.6312 22.1875 60.6207 22.0632C60.5871 21.817 60.5042 21.58 60.3769 21.3662C60.1861 21.0562 59.9793 20.7562 59.7575 20.4673C59.4871 20.115 59.2427 19.7437 59.0263 19.3562C58.8608 19.0663 58.7701 18.7401 58.7622 18.4068C58.7615 18.0325 58.903 17.6718 59.1583 17.3968C59.3796 17.1302 59.6716 16.9308 60.0012 16.821C60.3694 16.7153 60.7602 16.7153 61.1284 16.821C61.6028 16.9753 62.0414 17.2226 62.4181 17.5483C62.7308 17.8069 63.0074 18.1058 63.2407 18.4371C63.4564 18.7443 63.6178 19.0859 63.718 19.4471L63.1392 19.7502C63.0382 19.4135 62.8876 19.0935 62.6923 18.8007C62.4978 18.5393 62.269 18.3049 62.0119 18.1038C61.6553 17.7606 61.1948 17.5441 60.7019 17.4877C60.5207 17.4726 60.3387 17.5026 60.172 17.5748C60.0054 17.6471 59.8595 17.7595 59.7473 17.9018C59.6609 17.9928 59.5953 18.1013 59.555 18.2198C59.5147 18.3383 59.5006 18.4641 59.5137 18.5886C59.5375 18.8433 59.621 19.0889 59.7575 19.3057C59.8996 19.538 60.1027 19.8411 60.3769 20.2047C60.6487 20.5489 60.8932 20.9136 61.1081 21.2955C61.2771 21.5846 61.3713 21.9108 61.3823 22.245C61.383 22.6193 61.2415 22.98 60.9862 23.255C60.7641 23.5252 60.4677 23.7252 60.1332 23.8307C59.7657 23.9411 59.3735 23.9411 59.006 23.8307C58.5283 23.6769 58.0863 23.4296 57.7061 23.1035C57.2962 22.7487 56.9524 22.3247 56.6906 21.851ZM65.4742 21.3057L66.9061 23.3258L61.6152 27.0428L62.0418 27.6589L67.3428 23.9722L68.7747 25.9923L69.3027 25.6186L66.0023 20.932L65.4742 21.3057ZM64.632 31.6283C64.8133 31.0178 65.1656 30.4713 65.6476 30.0526C66.1191 29.6326 66.6935 29.3435 67.313 29.2143C67.9446 29.0701 68.6032 29.0945 69.2222 29.285C69.8197 29.4814 70.3553 29.8296 70.776 30.295C71.2134 30.7956 71.5111 31.4016 71.6392 32.0525C71.8074 32.6915 71.8074 33.3628 71.6392 34.0019C71.4529 34.61 71.1015 35.1553 70.6236 35.5775C70.1391 36.0089 69.5505 36.3081 68.9152 36.4462C68.2799 36.5842 67.6195 36.5564 66.9982 36.3654C66.3962 36.1784 65.8582 35.8287 65.4445 35.3553C65.009 34.8574 64.7115 34.2551 64.5813 33.608C64.4261 32.9548 64.4436 32.2728 64.632 31.6283ZM65.9624 34.8402C66.3014 35.2243 66.7408 35.5074 67.2318 35.6583C67.7378 35.8043 68.2727 35.8217 68.7872 35.7087C69.3017 35.5958 69.7795 35.3562 70.1768 35.0119C70.5516 34.6689 70.8284 34.2333 70.9791 33.7494C71.1207 33.2384 71.1345 32.7007 71.0195 32.1831C70.9045 31.6656 70.664 31.1838 70.319 30.7798C69.965 30.394 69.5122 30.1112 69.009 29.9617C68.4965 29.8264 67.9575 29.8264 67.445 29.9617C66.928 30.0604 66.4494 30.3019 66.0639 30.6586C65.6857 31.0028 65.4084 31.4427 65.2617 31.9313C65.1238 32.4441 65.1238 32.984 65.2617 33.4969C65.3729 33.998 65.6145 34.4612 65.9624 34.8402ZM66.4911 42.3447L63.8609 43.3547L63.668 44.1123L66.4708 43.1022C66.4733 43.601 66.6467 44.084 66.9624 44.4714C67.2781 44.8589 67.7173 45.1277 68.2074 45.2334C68.5291 45.3375 68.8707 45.3661 69.2054 45.317C69.5402 45.268 69.8589 45.1426 70.1368 44.9506C70.7416 44.4836 71.1593 43.8176 71.3148 43.0719L72.0054 40.5165L65.1405 38.6884L64.9475 39.4055L67.1004 39.961L66.6028 41.7892C66.5939 41.8228 66.5847 41.8562 66.5756 41.8892C66.5326 42.0448 66.4911 42.1948 66.4911 42.3447ZM67.7374 44.1918C67.5433 44.0407 67.3819 43.8522 67.2629 43.6376C67.0559 43.1029 67.0451 42.5128 67.2325 41.971L67.7199 40.1529L71.1625 41.0721L70.6751 42.8901C70.566 43.4515 70.2601 43.9562 69.8119 44.3143C69.6012 44.4414 69.3668 44.5249 69.1229 44.5596C68.8789 44.5944 68.6304 44.5797 68.3923 44.5165C68.1542 44.4533 67.9314 44.3428 67.7374 44.1918ZM60.2142 49.8594L59.6963 49.4655L62.7429 45.4758L68.4095 49.7483L65.4645 53.6168L64.9465 53.2229L67.4346 49.9604L65.4035 48.4353L63.1795 51.3543L62.6718 50.9705L64.9465 48.0514L62.8444 46.4657L60.2142 49.8594ZM56.3867 57.9904L57.8389 57.9096L57.0976 59.1318L57.5241 59.3742L58.1943 58.0611L58.9661 59.2732L59.3622 59.0207L58.5802 57.8187H60.0528V57.3238L58.6006 57.4046L59.2911 56.132L58.8544 55.8997L58.2248 57.2531L57.453 56.0411L57.057 56.2936L57.8389 57.4955L56.3867 57.5056V57.9904ZM44.6361 57.1016L45.8649 57.7783C46.0709 57.3847 46.3584 57.039 46.7085 56.7639C47.0586 56.4888 47.4633 56.2907 47.8959 56.1824C48.2995 56.0573 48.724 56.0126 49.145 56.0511C49.5103 56.079 49.8612 56.2047 50.1605 56.4147C50.4311 56.6176 50.6302 56.9005 50.7292 57.2228C50.8516 57.6215 50.8301 58.0502 50.6683 58.4348C50.4135 58.9574 50.0699 59.4324 49.6528 59.8388C49.9876 60.0177 50.2981 60.2383 50.5769 60.4953C50.7684 60.6922 50.911 60.9308 50.9933 61.1922C51.0453 61.396 51.0485 61.6091 51.0027 61.8144C50.9568 62.0196 50.8632 62.2113 50.7292 62.374C50.4581 62.7625 50.0536 63.0391 49.5919 63.1517C49.1864 63.3055 48.7381 63.3055 48.3326 63.1517C48.1523 63.0746 47.9924 62.9569 47.8656 62.8079C47.7387 62.659 47.6483 62.4828 47.6014 62.2932C47.495 61.9598 47.5204 61.5985 47.6725 61.2831C47.9056 60.824 48.2107 60.4046 48.5763 60.0408L46.1289 58.6873C46.0355 59.163 46.015 59.6499 46.068 60.1317H45.4485C45.4068 59.5384 45.4757 58.9426 45.6516 58.3742L44.3721 57.6672L44.6361 57.1016ZM46.4031 58.1116L49.0942 59.5964C49.4469 59.2614 49.7389 58.8684 49.9574 58.4348C50.069 58.142 50.069 57.8186 49.9574 57.5258C49.9114 57.3508 49.8223 57.1899 49.6982 57.0577C49.5741 56.9255 49.4189 56.826 49.2466 56.7683C48.825 56.6266 48.3683 56.6266 47.9467 56.7683C47.6022 56.8586 47.2818 57.0231 47.0081 57.2499C46.7344 57.4768 46.514 57.7606 46.3625 58.0813L46.4031 58.1116ZM50.2215 62.1518C50.2878 62.0402 50.3294 61.9157 50.3434 61.7868C50.3574 61.6579 50.3436 61.5275 50.3027 61.4043C50.2405 61.2049 50.1287 61.0242 49.9778 60.8791C49.7193 60.6623 49.4364 60.4758 49.1349 60.3236C48.827 60.6264 48.5575 60.9656 48.3326 61.3336C48.2098 61.5631 48.1807 61.8308 48.2514 62.0811C48.2836 62.1966 48.3401 62.3041 48.4171 62.3964C48.4941 62.4887 48.5899 62.5636 48.6982 62.6164C48.9567 62.7133 49.2419 62.7133 49.5005 62.6164C49.7766 62.5431 50.0176 62.3749 50.1809 62.1417L50.2215 62.1518ZM32.399 57.8186L32.2568 64.8889L32.8763 64.899L36.0346 59.7175L39.0202 65H39.6397L39.7717 57.9297H39.0507L38.9491 63.5556L36.2478 58.768H35.8924L33.0083 63.4748L33.12 57.8186H32.399ZM28.7228 57.4953C29.1872 57.9356 29.5195 58.4954 29.6827 59.1125C29.8459 59.7296 29.8335 60.3796 29.6469 60.9901C29.4801 61.6152 29.1468 62.1839 28.6822 62.6365C28.2307 63.0779 27.6646 63.3856 27.0472 63.5253C26.3959 63.6714 25.718 63.6506 25.0771 63.4647C24.4383 63.3095 23.8507 62.9929 23.371 62.5456C22.9135 62.111 22.5866 61.5584 22.4266 60.9497C22.2704 60.3204 22.2819 59.6615 22.46 59.038C22.6381 58.4145 22.9766 57.848 23.4421 57.3943C23.8856 56.9541 24.4397 56.6402 25.0466 56.4853C25.6945 56.3396 26.3691 56.3604 27.0066 56.5459C27.6519 56.7086 28.2435 57.0358 28.7228 57.4953ZM25.2599 57.1418C24.7631 57.2569 24.3091 57.5089 23.9499 57.8691C23.5758 58.2396 23.3092 58.7037 23.1781 59.2124C23.0364 59.7179 23.0364 60.2523 23.1781 60.7578C23.2978 61.2496 23.5548 61.6977 23.9194 62.0506C24.3018 62.4225 24.7739 62.6904 25.2904 62.8284C25.8068 62.9592 26.348 62.9592 26.8644 62.8284C27.3616 62.7068 27.8172 62.4558 28.1846 62.1011C28.5567 61.729 28.823 61.2655 28.9564 60.7578C29.0984 60.2489 29.0984 59.7112 28.9564 59.2023C28.8264 58.7124 28.5669 58.266 28.2049 57.9095C27.8205 57.5371 27.3441 57.2723 26.8238 57.1418C26.3121 57.0011 25.7716 57.0011 25.2599 57.1418ZM17.8461 55.2228L17.5719 52.4452L16.8509 51.9806L17.1454 54.9501C16.6585 54.8315 16.1462 54.8704 15.683 55.0612C15.227 55.2741 14.8528 55.6286 14.6167 56.0713C14.4367 56.3538 14.323 56.6731 14.2844 57.0054C14.2457 57.3377 14.2829 57.6744 14.3933 57.9903C14.6923 58.6916 15.2322 59.2644 15.9166 59.6064L18.232 60.9296L21.7863 54.839L21.1262 54.4653L20.0092 56.4248L18.3539 55.4753C18.1898 55.3811 18.0203 55.2968 17.8461 55.2228ZM15.7556 55.9508C15.9517 55.8032 16.1757 55.6965 16.4142 55.6369V55.5864C17.0006 55.556 17.5792 55.7311 18.0492 56.0814L19.6842 57.0207L17.907 60.0508L16.272 59.1115C15.7549 58.857 15.3422 58.4323 15.1042 57.9095C15.0353 57.6747 15.0148 57.4286 15.0438 57.1857C15.0729 56.9428 15.1509 56.7083 15.2732 56.4961C15.3955 56.2839 15.5596 56.0985 15.7556 55.9508ZM11.5603 47.7082L12.0173 47.2537L15.5208 50.8393L10.4432 55.7683L7.06152 52.2938L7.52866 51.8393L10.4026 54.7785L12.1391 53.0311L9.62064 50.4252L10.1081 49.9606L12.6774 52.5867L14.5662 50.7585L11.5603 47.7082ZM4.25977 42.3448L4.01604 43.7387L2.91928 42.7893L2.58416 43.1529L3.71139 44.0922L2.35059 44.5669L2.50291 44.9609L3.86372 44.476L3.57937 45.9103L4.06682 46.0012L4.3207 44.5669L5.40731 45.577L5.73228 45.2134L4.60505 44.2639L5.976 43.7993L5.81352 43.3549L4.46287 43.8498L4.73706 42.4156L4.25977 42.3448Z"
      fill="#303030"
    />
  </g>
</svg>
