<svg width="69" height="56" viewBox="0 0 69 56" fill="none" xmlns="http://www.w3.org/2000/svg">
<g clip-path="url(#clip0_1374_36)">
<path d="M39.1737 17.0529L37.8623 16.0428C37.6574 15.8754 37.3952 15.7963 37.1328 15.8228C36.8704 15.8492 36.6289 15.9791 36.4609 16.1842L18.3125 37.2133L18.5928 37.5264L23.0873 33.3448C22.9376 33.284 22.8136 33.1722 22.7371 33.0287C22.6605 32.8853 22.6362 32.7193 22.6683 32.5596C22.7004 32.4 22.787 32.2567 22.9129 32.1547C23.0388 32.0528 23.1962 31.9985 23.3576 32.0015C23.5032 32.0015 23.6449 32.0485 23.7621 32.1358C23.8792 32.2231 23.9655 32.3459 24.0083 32.4863L29.9343 26.9412C30.025 26.8674 30.1381 26.8271 30.2546 26.8271C30.3712 26.8271 30.4842 26.8674 30.5749 26.9412L30.8752 27.1634C30.9768 27.2368 31.102 27.2693 31.2261 27.2543C31.3502 27.2394 31.4643 27.1781 31.5459 27.0826L39.2938 18.3154C39.3761 18.2284 39.4389 18.1245 39.478 18.0108C39.517 17.897 39.5313 17.7762 39.5199 17.6564C39.5085 17.5366 39.4716 17.4207 39.4119 17.3166C39.3522 17.2124 39.2709 17.1225 39.1737 17.0529Z" fill="#303030"/>
<path d="M47.703 22.9717C43.7314 25.823 39.2823 27.9273 34.5696 29.1834C29.8923 30.3837 25.1063 31.1011 20.2852 31.3247C20.3822 32.0421 20.5568 32.7466 20.8057 33.4256C23.5284 35.9103 44.0292 31.6681 48.0333 26.7593C48.8842 25.7392 47.703 22.9717 47.703 22.9717ZM23.3583 33.3448C23.2236 33.3448 23.092 33.3045 22.9801 33.2291C22.8682 33.1536 22.7809 33.0463 22.7294 32.9208C22.6779 32.7953 22.6644 32.6572 22.6907 32.524C22.7169 32.3908 22.7818 32.2684 22.877 32.1723C22.9721 32.0763 23.0934 32.0109 23.2255 31.9844C23.3575 31.9579 23.4944 31.9714 23.6188 32.0234C23.7431 32.0754 23.8495 32.1635 23.9242 32.2764C23.999 32.3893 24.039 32.5221 24.039 32.658C24.0403 32.7486 24.0236 32.8385 23.9899 32.9224C23.9562 33.0064 23.9061 33.0826 23.8426 33.1467C23.7791 33.2107 23.7035 33.2613 23.6204 33.2953C23.5372 33.3293 23.448 33.3462 23.3583 33.3448Z" fill="#303030"/>
<path d="M3.98872 21.5171L4.14888 20.8202L6.75152 21.4161C6.96625 21.8163 7.09901 22.256 7.14192 22.709C7.1916 23.1888 7.16115 23.6736 7.05183 24.1432C6.92225 24.795 6.6254 25.401 6.19096 25.9007C5.77762 26.3725 5.24467 26.7217 4.64939 26.9107C4.03586 27.1016 3.38331 27.126 2.75747 26.9814C2.13026 26.8448 1.55211 26.5374 1.08578 26.0926C0.626579 25.6654 0.296841 25.1155 0.134811 24.5068C-0.044937 23.8457 -0.044937 23.1479 0.134811 22.4868C0.242398 21.9919 0.435543 21.5201 0.70539 21.0929C0.960788 20.7044 1.30384 20.3824 1.70641 20.1536L2.06677 20.7091C1.72173 20.9228 1.42554 21.208 1.19777 21.5458C0.970002 21.8836 0.815829 22.2662 0.74543 22.6686C0.621291 23.1911 0.631629 23.737 0.775461 24.2543C0.909967 24.7456 1.17677 25.1896 1.54624 25.5371C1.92601 25.9075 2.40114 26.1629 2.91763 26.2744C3.41847 26.4163 3.94835 26.4163 4.44919 26.2744C4.92896 26.1146 5.35988 25.8329 5.70046 25.4563C6.05046 25.0496 6.29166 24.5593 6.40117 24.0321C6.56587 23.3926 6.52378 22.7167 6.28105 22.1029L3.98872 21.5171Z" fill="#303030"/>
<path d="M9.65378 15.1641L7.32141 18.3053L8.32243 20.1133L7.86196 20.7395L4.1582 13.9217L4.58864 13.3258L12.1263 14.9621L11.6558 15.5883L9.65378 15.1641ZM8.99311 15.0025L4.98905 14.0934L6.99108 17.7195L8.99311 15.0025Z" fill="#303030"/>
<path d="M8.99414 8.64922L9.59475 8.1947L13.4086 13.3459L16.5518 10.9723L16.9322 11.4874L13.1984 14.3055L8.99414 8.64922Z" fill="#303030"/>
<path d="M15.2998 4.43729L15.9705 4.13428L18.6132 9.97232L22.1868 8.33605L22.4471 8.92188L18.2028 10.8713L15.2998 4.43729Z" fill="#303030"/>
<path d="M28.4932 6.76034L28.6433 7.39667L23.8184 8.53802L22.2168 1.64953L26.9015 0.548584L27.0417 1.17481L23.0376 2.11415L23.6082 4.55845L27.1318 3.72012L27.2819 4.34634L23.7484 5.17458L24.349 7.72998L28.4932 6.76034Z" fill="#303030"/>
<path d="M35.3706 7.01312L33.6989 4.79103C33.5121 4.80145 33.325 4.80145 33.1383 4.79103L31.2564 4.85163L31.3265 7.09392H30.5857L30.3555 0.0236313L33.0182 0.0135309C33.771 -0.0566247 34.5239 0.147617 35.1403 0.589255C35.4001 0.800347 35.609 1.06823 35.7512 1.37268C35.8934 1.67713 35.9652 2.01019 35.9612 2.34673C35.9904 2.84588 35.8606 3.34138 35.5908 3.76079C35.3031 4.16335 34.8967 4.46384 34.4296 4.61932L36.1814 6.98282L35.3706 7.01312ZM34.6698 3.69008C34.8498 3.52378 34.9894 3.31796 35.0779 3.08853C35.1664 2.8591 35.2015 2.61221 35.1804 2.36693C35.1855 2.12035 35.135 1.87581 35.0327 1.65183C34.9304 1.42784 34.7789 1.23027 34.5898 1.07407C34.1284 0.758416 33.5736 0.612221 33.0182 0.659958L31.1162 0.730661L31.2364 4.26581L33.0983 4.2052C33.666 4.2264 34.2228 4.04389 34.6698 3.69008Z" fill="#303030"/>
<path d="M40.6659 5.13434L40.3055 7.54834L39.5748 7.43724L39.9451 5.06364L37.873 0.0134277L38.6538 0.134633L40.4256 4.43741L43.4287 0.871963L44.1294 1.02347L40.6659 5.13434Z" fill="#303030"/>
<path d="M50.5662 4.71024L51.4371 5.85159L51.0567 6.1546L50.1859 4.98295L49.6353 6.30611L49.2149 6.1243L49.7754 4.80115L48.334 4.99305V4.50823L49.7554 4.34663L48.8745 3.20528L49.2649 2.90227L50.0357 4.05371L50.5763 2.72046L51.0067 2.90227L50.4962 4.25572L51.9376 4.05371V4.54863L50.5662 4.71024Z" fill="#303030"/>
<path d="M53.909 12.851C53.6726 12.4833 53.5251 12.0647 53.4785 11.6289L54.0691 11.3663C54.1134 11.7667 54.2432 12.1526 54.4495 12.4975C54.6731 12.8843 54.9649 13.2266 55.3104 13.5076C55.6672 13.8523 56.1225 14.0749 56.6117 14.1439C56.7885 14.1604 56.9666 14.1332 57.1305 14.0645C57.2945 13.9959 57.4394 13.8879 57.5526 13.75C57.6357 13.6576 57.699 13.5489 57.7386 13.4307C57.7782 13.3126 57.7933 13.1875 57.7829 13.0632C57.7498 12.817 57.6681 12.58 57.5426 12.3662C57.3545 12.0562 57.1507 11.7562 56.932 11.4673C56.6655 11.115 56.4246 10.7437 56.2113 10.3562C56.0482 10.0663 55.9588 9.7401 55.951 9.4068C55.9503 9.03251 56.0898 8.67175 56.3414 8.39676C56.5596 8.13024 56.8474 7.93078 57.1723 7.82104C57.5352 7.71525 57.9204 7.71525 58.2834 7.82104C58.751 7.97535 59.1833 8.22262 59.5547 8.54827C59.8629 8.80691 60.1355 9.10582 60.3655 9.4371C60.5781 9.74432 60.7373 10.0859 60.836 10.4471L60.2654 10.7502C60.1659 10.4135 60.0175 10.0935 59.825 9.80072C59.6332 9.53927 59.4076 9.30488 59.1543 9.10379C58.8028 8.76062 58.3489 8.54406 57.863 8.48766C57.6844 8.4726 57.5049 8.50256 57.3407 8.57484C57.1764 8.64713 57.0326 8.75948 56.922 8.90178C56.8369 8.99277 56.7722 9.10125 56.7325 9.2198C56.6927 9.33834 56.6789 9.46415 56.6918 9.58861C56.7152 9.84331 56.7975 10.0889 56.932 10.3057C57.0722 10.538 57.2724 10.8411 57.5426 11.2047C57.8106 11.5489 58.0515 11.9136 58.2634 12.2955C58.4299 12.5846 58.5228 12.9108 58.5336 13.245C58.5343 13.6193 58.3949 13.98 58.1432 14.255C57.9243 14.5252 57.6321 14.7252 57.3024 14.8307C56.9401 14.9411 56.5536 14.9411 56.1913 14.8307C55.7204 14.6769 55.2848 14.4296 54.91 14.1035C54.5059 13.7487 54.167 13.3247 53.909 12.851Z" fill="#303030"/>
<path d="M63.979 14.3258L62.5675 12.3057L63.0881 11.932L66.3414 16.6186L65.8208 16.9923L64.4094 14.9722L59.1841 18.6589L58.7637 18.0428L63.979 14.3258Z" fill="#303030"/>
<path d="M61.7373 22.6283C61.916 22.0178 62.2632 21.4713 62.7383 21.0526C63.2031 20.6326 63.7693 20.3434 64.3799 20.2143C65.0025 20.0701 65.6517 20.0945 66.2618 20.285C66.8508 20.4814 67.3787 20.8296 67.7934 21.295C68.2246 21.7956 68.518 22.4016 68.6443 23.0525C68.8101 23.6915 68.8101 24.3628 68.6443 25.0019C68.4606 25.61 68.1143 26.1553 67.6432 26.5775C67.1656 27.0089 66.5855 27.3081 65.9592 27.4462C65.333 27.5842 64.682 27.5564 64.0696 27.3654C63.4762 27.1784 62.9459 26.8287 62.5381 26.3553C62.1088 25.8574 61.8155 25.2551 61.6872 24.608C61.5343 23.9548 61.5515 23.2728 61.7373 22.6283ZM63.0486 25.8402C63.3828 26.2243 63.8159 26.5074 64.2999 26.6583C64.7987 26.8043 65.3258 26.8217 65.833 26.7087C66.3402 26.5958 66.8112 26.3562 67.2028 26.0119C67.5723 25.6689 67.8451 25.2333 67.9936 24.7494C68.1332 24.2384 68.1469 23.7007 68.0335 23.1831C67.92 22.6656 67.683 22.1838 67.3429 21.7798C66.994 21.394 66.5477 21.1112 66.0516 20.9617C65.5465 20.8264 65.0152 20.8264 64.5101 20.9617C64.0004 21.0604 63.5286 21.3019 63.1487 21.6586C62.7758 22.0028 62.5025 22.4427 62.3579 22.9313C62.222 23.4441 62.222 23.984 62.3579 24.4969C62.4675 24.998 62.7057 25.4612 63.0486 25.8402Z" fill="#303030"/>
<path d="M60.9773 34.3547L63.5699 33.3447C63.5699 33.1629 63.63 32.9811 63.68 32.7892L64.1705 30.961L62.0484 30.4055L62.2386 29.6884L69.0054 31.5165L68.3248 34.0719C68.1714 34.8176 67.7597 35.4836 67.1636 35.9506C66.8896 36.1426 66.5754 36.268 66.2455 36.317C65.9155 36.3661 65.5788 36.3375 65.2616 36.2334C64.7786 36.1277 64.3457 35.8589 64.0345 35.4714C63.7233 35.084 63.5523 34.601 63.5499 34.1022L60.7871 35.1123L60.9773 34.3547ZM64.3307 34.6376C64.448 34.8522 64.607 35.0407 64.7984 35.1918C64.9897 35.3428 65.2093 35.4533 65.444 35.5165C65.6787 35.5797 65.9236 35.5944 66.1641 35.5596C66.4045 35.5249 66.6356 35.4414 66.8433 35.3143C67.2851 34.9562 67.5866 34.4515 67.6941 33.8901L68.1746 32.0721L64.7812 31.1529L64.3007 32.971C64.116 33.5128 64.1266 34.1029 64.3307 34.6376Z" fill="#303030"/>
<path d="M57.3826 40.8594L56.8721 40.4655L59.8751 36.4758L65.4608 40.7483L62.5578 44.6168L62.0473 44.2229L64.4998 40.9604L62.4978 39.4353L60.3055 42.3543L59.805 41.9705L62.0473 39.0514L59.9752 37.4657L57.3826 40.8594Z" fill="#303030"/>
<path d="M55.0408 48.9096L53.6094 48.9904V48.5056L55.0408 48.4955L54.27 47.2936L54.6604 47.0411L55.4212 48.2531L56.0418 46.8997L56.4723 47.132L55.7916 48.4046L57.223 48.3238V48.8187H55.7716L56.5424 50.0207L56.152 50.2732L55.3912 49.0612L54.7305 50.3742L54.3101 50.1318L55.0408 48.9096Z" fill="#303030"/>
<path d="M42.0269 48.1016L43.2381 48.7783C43.4412 48.3847 43.7246 48.039 44.0696 47.7639C44.4147 47.4888 44.8136 47.2907 45.2401 47.1824C45.638 47.0573 46.0564 47.0126 46.4714 47.0511C46.8314 47.079 47.1773 47.2047 47.4724 47.4147C47.7391 47.6176 47.9353 47.9005 48.033 48.2228C48.1536 48.6215 48.1324 49.0502 47.9729 49.4348C47.7217 49.9574 47.3831 50.4324 46.9719 50.8388C47.3019 51.0177 47.608 51.2383 47.8828 51.4953C48.0716 51.6922 48.2121 51.9308 48.2932 52.1922C48.3445 52.396 48.3477 52.6091 48.3025 52.8144C48.2573 53.0196 48.165 53.2113 48.033 53.374C47.7657 53.7625 47.367 54.0391 46.9118 54.1517C46.5121 54.3055 46.0703 54.3055 45.6706 54.1517C45.4928 54.0746 45.3352 53.9569 45.2102 53.8079C45.0851 53.659 44.996 53.4828 44.9498 53.2932C44.8449 52.9598 44.8699 52.5985 45.0199 52.2831C45.2497 51.824 45.5504 51.4046 45.9108 51.0408L43.4984 49.6873C43.4063 50.163 43.3861 50.6499 43.4383 51.1317H42.8277C42.7866 50.5384 42.8544 49.9426 43.0279 49.3742L41.7666 48.6672L42.0269 48.1016ZM43.7686 49.1116L46.4213 50.5964C46.769 50.2614 47.0568 49.8684 47.2722 49.4348C47.3822 49.142 47.3822 48.8186 47.2722 48.5258C47.2268 48.3508 47.139 48.1899 47.0167 48.0577C46.8943 47.9255 46.7414 47.826 46.5715 47.7683C46.1559 47.6266 45.7057 47.6266 45.2902 47.7683C44.9506 47.8586 44.6348 48.0231 44.365 48.2499C44.0952 48.4768 43.8779 48.7606 43.7286 49.0813L43.7686 49.1116ZM47.5324 53.1518C47.5979 53.0402 47.6388 52.9157 47.6527 52.7868C47.6665 52.6579 47.6528 52.5275 47.6125 52.4043C47.5512 52.2049 47.441 52.0242 47.2922 51.8791C47.0374 51.6623 46.7586 51.4758 46.4614 51.3236C46.1579 51.6264 45.8923 51.9656 45.6706 52.3336C45.5495 52.5631 45.5209 52.8308 45.5905 53.0811C45.6222 53.1966 45.6779 53.3041 45.7538 53.3964C45.8297 53.4887 45.9242 53.5636 46.0309 53.6164C46.2858 53.7133 46.5669 53.7133 46.8217 53.6164C47.0939 53.5431 47.3315 53.3749 47.4924 53.1417L47.5324 53.1518Z" fill="#303030"/>
<path d="M29.8242 55.8889L29.9644 48.8186H30.6751L30.565 54.4748L33.4079 49.768H33.7582L36.4209 54.5556L36.521 48.9297H37.2317L37.1016 56H36.491L33.548 50.7175L30.4348 55.899L29.8242 55.8889Z" fill="#303030"/>
<path d="M26.3413 48.4953C26.799 48.9356 27.1266 49.4954 27.2874 50.1125C27.4483 50.7296 27.4361 51.3796 27.2522 51.9901C27.0877 52.6152 26.7592 53.1839 26.3012 53.6365C25.8562 54.0779 25.2981 54.3856 24.6896 54.5253C24.0476 54.6714 23.3794 54.6506 22.7476 54.4647C22.118 54.3095 21.5387 53.9929 21.0659 53.5456C20.615 53.111 20.2927 52.5584 20.135 51.9497C19.981 51.3204 19.9924 50.6615 20.1679 50.038C20.3435 49.4145 20.6772 48.848 21.136 48.3943C21.5731 47.9541 22.1193 47.6402 22.7176 47.4853C23.3562 47.3396 24.0211 47.3604 24.6496 47.5459C25.2857 47.7086 25.8688 48.0358 26.3413 48.4953ZM22.9278 48.1418C22.4382 48.2569 21.9906 48.5089 21.6365 48.8691C21.2678 49.2396 21.005 49.7037 20.8757 50.2124C20.7361 50.7179 20.7361 51.2523 20.8757 51.7578C20.9938 52.2496 21.2471 52.6977 21.6065 53.0506C21.9834 53.4225 22.4487 53.6904 22.9578 53.8284C23.4669 53.9592 24.0004 53.9592 24.5094 53.8284C24.9995 53.7068 25.4486 53.4558 25.8107 53.1011C26.1775 52.729 26.44 52.2655 26.5715 51.7578C26.7114 51.2489 26.7114 50.7112 26.5715 50.2023C26.4434 49.7124 26.1876 49.266 25.8308 48.9095C25.4519 48.5371 24.9822 48.2723 24.4694 48.1418C23.965 48.0011 23.4322 48.0011 22.9278 48.1418Z" fill="#303030"/>
<path d="M15.3499 43.4452L15.6202 46.2228C15.7919 46.2968 15.959 46.3811 16.1207 46.4753L17.7524 47.4248L18.8535 45.4653L19.5041 45.839L16.0006 51.9296L13.7183 50.6064C13.0437 50.2644 12.5115 49.6916 12.2167 48.9903C12.1079 48.6744 12.0712 48.3377 12.1093 48.0054C12.1475 47.6731 12.2595 47.3538 12.437 47.0713C12.6696 46.6286 13.0385 46.2741 13.488 46.0612C13.9446 45.8704 14.4495 45.8315 14.9295 45.9501L14.6392 42.9806L15.3499 43.4452ZM14.2088 46.6369C13.9737 46.6965 13.7529 46.8032 13.5596 46.9508C13.3663 47.0985 13.2046 47.2839 13.084 47.4961C12.9635 47.7083 12.8866 47.9428 12.858 48.1857C12.8293 48.4285 12.8496 48.6747 12.9174 48.9095C13.1521 49.4323 13.5588 49.857 14.0686 50.1115L15.6803 51.0508L17.432 48.0207L15.8204 47.0814C15.3572 46.7311 14.7868 46.556 14.2088 46.5864V46.6369Z" fill="#303030"/>
<path d="M9.42376 38.7082L9.87421 38.2537L13.3277 41.8393L8.32264 46.7683L4.98926 43.2938L5.44973 42.8393L8.2826 45.7785L9.99434 44.0311L7.51182 41.4252L7.9923 40.9606L10.5249 43.5867L12.3868 41.7585L9.42376 38.7082Z" fill="#303030"/>
<path d="M1.98737 34.7387L2.22761 33.3448L2.69809 33.4156L2.42782 34.8498L3.75917 34.3549L3.91933 34.7993L2.56796 35.2639L3.67908 36.2134L3.35876 36.577L2.28767 35.5669L2.03742 37.0012L1.55693 36.9103L1.83722 35.476L0.495855 35.9609L0.345703 35.5669L1.68706 35.0922L0.575937 34.1529L0.906272 33.7893L1.98737 34.7387Z" fill="#303030"/>
</g>
<defs>
<clipPath id="clip0_1374_36">
<rect width="69" height="56" fill="white"/>
</clipPath>
</defs>
</svg>
