<svg
  aria-hidden="true"
  style="position:absolute;width:0;height:0;overflow:hidden"
  xmlns="http://www.w3.org/2000/svg"
>
  <defs>
    <symbol
      id="shave"
      viewBox="0 0 75 75"
    >
      <path
        fill-rule="evenodd"
        clip-rule="evenodd"
        d="m41.833 27.225 1.33 1.01a.84.84 0 0 1 .31.958.84.84 0 0 1-.188.305l-7.86 8.767a.509.509 0 0 1-.68.08l-.305-.222a.52.52 0 0 0-.65 0l-4.246 3.917c3.013-.37 6.002-.929 8.948-1.674a41.177 41.177 0 0 0 13.324-6.212s1.198 2.767.335 3.788c-3.602 4.353-20.369 8.182-26.043 7.26l-3.824 3.507-.284-.314 3.044-3.477a1.827 1.827 0 0 1-.515-.31 9.888 9.888 0 0 1-.528-2.101 72.764 72.764 0 0 0 3.357-.231l13.053-14.91a1.017 1.017 0 0 1 1.422-.14ZM26.52 43.498a.685.685 0 0 0 .599 1.03.685.685 0 0 0 .64-.423.674.674 0 0 0 .05-.265c0-.06-.008-.12-.024-.178l-.007.007a.687.687 0 0 0-.66-.485.703.703 0 0 0-.598.314Z"
        fill="#303030"
      />
    </symbol>
    <symbol
      id="text"
      viewBox="0 0 75 75"
    >
      <path
        fill-rule="evenodd"
        clip-rule="evenodd"
        d="m36.187 13.791 1.696 2.222.822-.03-1.777-2.364a2.366 2.366 0 0 0 1.178-.858c.274-.42.405-.915.376-1.414a2.21 2.21 0 0 0-.833-1.758 3.222 3.222 0 0 0-2.153-.575l-2.701.01.233 7.07h.752l-.071-2.242 1.91-.061c.188.01.378.01.568 0Zm1.399-1.703c-.09.23-.232.436-.414.602a2.446 2.446 0 0 1-1.594.515l-1.89.06-.121-3.534 1.93-.071a2.478 2.478 0 0 1 1.594.414 1.627 1.627 0 0 1 .599 1.293c.021.245-.014.492-.104.721Zm-6.68 3.672.153.637-4.895 1.141-1.625-6.889 4.753-1.1.142.626-4.062.94.579 2.444 3.574-.839.153.626-3.585.829.61 2.555 4.203-.97Zm-12.704-2.626-.68.303 2.945 6.434 4.305-1.95-.264-.585-3.625 1.636-2.681-5.838Zm-7.078 4.515.61-.454 3.868 5.15 3.19-2.373.385.515-3.788 2.819-4.265-5.657Zm-1.696 9.656 2.366-3.14 2.031.423.477-.626-7.647-1.636-.436.596 3.757 6.817.467-.626-1.015-1.808Zm-2.366-4.212 4.062.91-2.031 2.716-2.031-3.626Zm-.853 6.727-.162.697 2.325.586c.246.614.289 1.29.122 1.93a3.155 3.155 0 0 1-.71 1.423 2.988 2.988 0 0 1-1.27.818 2.889 2.889 0 0 1-1.554 0 2.869 2.869 0 0 1-1.391-.737 2.755 2.755 0 0 1-.782-1.283 3.135 3.135 0 0 1-.03-1.585 2.88 2.88 0 0 1 1.34-1.96l-.366-.555c-.408.228-.756.55-1.015.939a4.3 4.3 0 0 0-.58 1.394 3.798 3.798 0 0 0 0 2.02 3.33 3.33 0 0 0 .966 1.586 3.57 3.57 0 0 0 1.695.888c.635.145 1.297.12 1.92-.07A3.484 3.484 0 0 0 8.28 34.9c.44-.5.742-1.106.873-1.758.11-.47.142-.954.091-1.434a3.38 3.38 0 0 0-.396-1.293l-2.64-.596Zm37.046-15.686-.365 2.414-.742-.11.376-2.374-2.102-5.05.792.12 1.797 4.303 3.047-3.565.71.152-3.513 4.11Zm10.927.718L53.3 13.71l1.391-.161v-.495l-1.462.202.518-1.354-.437-.181-.548 1.333-.782-1.152-.396.303.893 1.142-1.442.161v.485l1.462-.192-.568 1.323.426.182.559-1.323.883 1.172.386-.303Zm2.509 6.999a2.788 2.788 0 0 1-.437-1.222l.6-.263c.044.4.176.787.385 1.131.227.387.523.73.873 1.01.362.345.824.568 1.32.637a1.112 1.112 0 0 0 .955-.394.908.908 0 0 0 .234-.687 1.852 1.852 0 0 0-.244-.697 10.6 10.6 0 0 0-.62-.899 9.161 9.161 0 0 1-.73-1.11 2.01 2.01 0 0 1-.265-.95c0-.375.141-.735.396-1.01.222-.267.514-.466.843-.576a2.043 2.043 0 0 1 1.127 0c.475.154.913.402 1.29.727.313.259.59.558.823.89.215.306.377.648.477 1.01l-.579.302a3.549 3.549 0 0 0-.447-.95 3.654 3.654 0 0 0-.68-.696 2.26 2.26 0 0 0-1.31-.616 1.103 1.103 0 0 0-.955.414.868.868 0 0 0-.233.687c.023.254.107.5.243.717.143.232.346.535.62.899.272.344.516.709.731 1.09.17.29.263.616.274.95.001.374-.14.735-.396 1.01-.222.27-.518.47-.853.576-.367.11-.76.11-1.127 0a3.773 3.773 0 0 1-1.3-.727 4.599 4.599 0 0 1-1.015-1.253Zm8.783-.545 1.432 2.02-5.29 3.717.426.616 5.3-3.687 1.433 2.02.528-.373-3.3-4.687-.529.374Zm-.842 10.322a3.351 3.351 0 0 1 1.016-1.575 3.612 3.612 0 0 1 1.665-.839 3.695 3.695 0 0 1 1.91.071 3.617 3.617 0 0 1 1.553 1.01c.437.5.735 1.107.863 1.758.168.639.168 1.31 0 1.949a3.452 3.452 0 0 1-1.015 1.575 3.775 3.775 0 0 1-3.626.788 3.404 3.404 0 0 1-1.553-1.01 3.79 3.79 0 0 1-.864-1.747 3.868 3.868 0 0 1 .051-1.98Zm1.33 3.212c.34.384.779.667 1.27.818a3.164 3.164 0 0 0 2.945-.646c.375-.343.651-.779.802-1.263a3.236 3.236 0 0 0-.66-2.97 2.898 2.898 0 0 0-1.31-.817 3.064 3.064 0 0 0-1.564 0c-.517.098-.996.34-1.381.697a2.816 2.816 0 0 0-.802 1.272 3.014 3.014 0 0 0 0 1.566c.11.501.353.964.7 1.343Zm.53 7.505-2.631 1.01-.193.757 2.803-1.01c.002.499.176.982.491 1.37.316.387.755.656 1.245.761a2.203 2.203 0 0 0 1.93-.282 3.2 3.2 0 0 0 1.178-1.88l.69-2.554-6.864-1.829-.194.718 2.153.555-.497 1.828-.027.1c-.043.156-.085.306-.085.456Zm1.245 1.847a1.823 1.823 0 0 1-.474-.554 2.422 2.422 0 0 1-.03-1.667l.487-1.818 3.442.92-.487 1.817a2.412 2.412 0 0 1-.863 1.424 1.834 1.834 0 0 1-2.075-.122Zm-7.523 5.667-.518-.394 3.047-3.99 5.666 4.273-2.945 3.869-.517-.394 2.488-3.263-2.032-1.525-2.224 2.92-.507-.384 2.275-2.92-2.103-1.585-2.63 3.393Zm-3.827 8.131 1.452-.08-.741 1.222.426.242.67-1.313.772 1.212.396-.252-.782-1.202h1.473v-.495l-1.452.08.69-1.272-.437-.232-.63 1.353-.771-1.212-.396.253.782 1.202-1.452.01v.484Zm-11.75-.888 1.228.676a3.145 3.145 0 0 1 2.03-1.596c.404-.125.829-.17 1.25-.13.365.027.716.153 1.015.363.271.203.47.486.57.808.122.398.1.827-.062 1.212a5.051 5.051 0 0 1-1.015 1.404c.335.179.645.4.924.656.191.197.334.436.416.697a1.338 1.338 0 0 1-.264 1.182 1.95 1.95 0 0 1-1.137.778 1.776 1.776 0 0 1-1.26 0 1.268 1.268 0 0 1-.73-.859 1.368 1.368 0 0 1 .07-1.01 4.85 4.85 0 0 1 .904-1.242l-2.447-1.354a4.782 4.782 0 0 0-.061 1.445h-.62a4.805 4.805 0 0 1 .204-1.758l-1.28-.707.264-.565Zm1.766 1.01 2.691 1.484c.353-.335.645-.728.863-1.161a1.276 1.276 0 0 0 0-.91 1.088 1.088 0 0 0-.71-.757 2.04 2.04 0 0 0-1.3 0 2.441 2.441 0 0 0-1.585 1.313l.041.03Zm3.819 4.04a.906.906 0 0 0 .08-.748c-.062-.2-.173-.38-.324-.525a4.392 4.392 0 0 0-.843-.555 5.274 5.274 0 0 0-.802 1.01c-.123.23-.152.497-.082.747a.848.848 0 0 0 .447.535c.259.097.544.097.803 0a1.21 1.21 0 0 0 .68-.474l.04.01Zm-17.823-4.333-.142 7.07.62.01 3.158-5.181L39.02 65h.62l.132-7.07h-.721l-.102 5.626-2.701-4.788h-.356l-2.884 4.707.112-5.656h-.721Zm-3.676-.324a3.426 3.426 0 0 1 .924 3.495 3.591 3.591 0 0 1-.965 1.646 3.417 3.417 0 0 1-1.635.89 3.96 3.96 0 0 1-1.97-.061 3.826 3.826 0 0 1-1.706-.92 3.39 3.39 0 0 1-.944-1.595 3.707 3.707 0 0 1 1.015-3.556 3.51 3.51 0 0 1 1.605-.909 3.93 3.93 0 0 1 1.96.06c.645.164 1.236.49 1.716.95Zm-3.463-.353c-.497.115-.95.367-1.31.727-.374.37-.64.835-.772 1.343a2.862 2.862 0 0 0 0 1.546c.12.492.377.94.741 1.293.383.371.855.64 1.371.777.517.131 1.058.131 1.574 0a2.888 2.888 0 0 0 1.32-.727c.373-.372.639-.835.772-1.343a2.893 2.893 0 0 0 0-1.556c-.13-.49-.39-.936-.751-1.292a3.052 3.052 0 0 0-1.381-.768 2.95 2.95 0 0 0-1.564 0Zm-7.414-1.92-.274-2.777-.721-.464.294 2.97c-.486-.12-.999-.08-1.462.11a2.32 2.32 0 0 0-1.066 1.01 2.214 2.214 0 0 0-.224 1.92 3.22 3.22 0 0 0 1.524 1.615l2.315 1.324 3.554-6.091-.66-.374-1.117 1.96-1.655-.95a4.751 4.751 0 0 0-.508-.252Zm-2.09.729c.196-.148.42-.255.658-.314v-.05a2.518 2.518 0 0 1 1.635.494l1.635.94-1.777 3.03-1.635-.94a2.49 2.49 0 0 1-1.168-1.201 1.808 1.808 0 0 1 .652-1.96Zm-4.196-8.243.457-.454 3.504 3.585-5.078 4.93-3.381-3.475.467-.455 2.874 2.94 1.736-1.748-2.518-2.606.487-.464 2.57 2.626 1.888-1.829-3.006-3.05Zm-7.3-5.363-.244 1.394-1.097-.95-.335.364 1.127.94-1.36.474.152.394 1.36-.485-.284 1.434.488.091.254-1.434 1.086 1.01.325-.364-1.127-.95 1.371-.464-.162-.444-1.351.495.274-1.434-.477-.071Z"
        fill="#303030"
      />
    </symbol>
    <symbol
      id="instagram"
      viewBox="0 0 32 32"
    >
      <path
        d="M31.912 9.408c-.075-1.7-.35-2.869-.744-3.882a7.803 7.803 0 0 0-1.85-2.838A7.867 7.867 0 0 0 26.486.844C25.467.45 24.304.175 22.604.1 20.891.019 20.347 0 16.003 0s-4.888.019-6.595.094c-1.7.075-2.869.35-3.882.744a7.803 7.803 0 0 0-2.838 1.85A7.867 7.867 0 0 0 .844 5.52C.45 6.539.175 7.702.1 9.402c-.081 1.713-.1 2.257-.1 6.601s.019 4.888.094 6.595c.075 1.7.35 2.869.744 3.882a7.895 7.895 0 0 0 1.85 2.838 7.867 7.867 0 0 0 2.832 1.844c1.019.394 2.182.669 3.882.744 1.706.075 2.25.094 6.595.094s4.888-.019 6.595-.094c1.7-.075 2.869-.35 3.882-.744a8.184 8.184 0 0 0 4.682-4.682c.394-1.019.669-2.182.744-3.882.075-1.707.094-2.251.094-6.595s-.006-4.888-.081-6.595zm-2.881 13.065c-.069 1.563-.331 2.407-.55 2.969a5.31 5.31 0 0 1-3.038 3.038c-.563.219-1.413.481-2.969.55-1.688.075-2.194.094-6.464.094s-4.782-.019-6.464-.094c-1.563-.069-2.407-.331-2.969-.55a4.926 4.926 0 0 1-1.838-1.194 4.974 4.974 0 0 1-1.194-1.838c-.219-.563-.481-1.413-.55-2.969-.075-1.688-.094-2.194-.094-6.464s.019-4.782.094-6.464c.069-1.563.331-2.407.55-2.969a4.868 4.868 0 0 1 1.2-1.838A4.974 4.974 0 0 1 6.583 3.55c.563-.219 1.413-.481 2.969-.55 1.688-.075 2.194-.094 6.464-.094 4.276 0 4.782.019 6.464.094 1.563.069 2.407.331 2.969.55a4.914 4.914 0 0 1 1.838 1.194 4.974 4.974 0 0 1 1.194 1.838c.219.563.481 1.413.55 2.969.075 1.688.094 2.194.094 6.464s-.019 4.77-.094 6.458z"
      />
      <path
        d="M16.059 7.783c-4.538 0-8.22 3.682-8.22 8.22s3.682 8.22 8.22 8.22c4.539 0 8.22-3.682 8.22-8.22s-3.682-8.22-8.22-8.22zm0 13.552a5.333 5.333 0 0 1 0-10.664 5.333 5.333 0 0 1 0 10.664zM26.524 7.458a1.919 1.919 0 1 1-3.838 0 1.919 1.919 0 0 1 3.838 0z"
      />
    </symbol>
    <symbol
      id="twitter"
      viewBox="0 0 32 32"
    >
      <path
        d="M32 6.078c-1.19.522-2.458.868-3.78 1.036a6.523 6.523 0 0 0 2.886-3.626 13.11 13.11 0 0 1-4.16 1.588A6.574 6.574 0 0 0 22.154 3c-3.632 0-6.556 2.948-6.556 6.562 0 .52.044 1.02.152 1.496-5.454-.266-10.28-2.88-13.522-6.862a6.605 6.605 0 0 0-.898 3.316 6.57 6.57 0 0 0 2.914 5.452 6.479 6.479 0 0 1-2.964-.808v.072c0 3.188 2.274 5.836 5.256 6.446a6.548 6.548 0 0 1-1.72.216 5.8 5.8 0 0 1-1.242-.112c.85 2.598 3.262 4.508 6.13 4.57a13.182 13.182 0 0 1-8.134 2.798c-.538 0-1.054-.024-1.57-.09A18.469 18.469 0 0 0 10.064 29c12.072 0 18.672-10 18.672-18.668 0-.29-.01-.57-.024-.848A13.087 13.087 0 0 0 32 6.078z"
      />
    </symbol>
    <symbol
      id="facebook"
      viewBox="0 0 32 32"
    >
      <path
        d="M21.33 5.313h2.921V.225C23.747.156 22.014 0 19.995 0c-4.212 0-7.097 2.649-7.097 7.519V12H8.25v5.688h4.648V32h5.699V17.689h4.46l.708-5.688h-5.169V8.082c.001-1.644.444-2.769 2.735-2.769z"
      />
    </symbol>
    <symbol
      id="linkedin"
      viewBox="0 0 32 32"
    >
      <path
        d="M31.992 32v-.001H32V20.263c0-5.741-1.236-10.164-7.948-10.164-3.227 0-5.392 1.771-6.276 3.449h-.093v-2.913h-6.364v21.364h6.627V21.42c0-2.785.528-5.479 3.977-5.479 3.399 0 3.449 3.179 3.449 5.657v10.401h6.62zM.528 10.636h6.635V32H.528V10.636zM3.843 0C1.722 0 0 1.721 0 3.843s1.721 3.879 3.843 3.879c2.121 0 3.843-1.757 3.843-3.879A3.846 3.846 0 0 0 3.843 0z"
      />
    </symbol>
    <symbol
      id="map-pin"
      viewBox="0 0 32 32"
    >
      <path
        stroke-linejoin="round"
        stroke-linecap="round"
        stroke-width="1.333"
        d="M26.667 13.818C26.667 21.454 16 28 16 28S5.333 21.455 5.333 13.818C5.333 8.396 10.109 4 16 4s10.667 4.396 10.667 9.818z"
      />
      <path
        stroke-linejoin="round"
        stroke-linecap="round"
        stroke-width="1.333"
        d="M16 18.667a4 4 0 1 0 0-8 4 4 0 0 0 0 8z"
      />
    </symbol>
    <symbol
      id="phone"
      viewBox="0 0 32 32"
    >
      <path
        stroke-linejoin="round"
        stroke-linecap="round"
        stroke-width="1.333"
        d="M26.666 21.337v3.218a2.146 2.146 0 0 1-2.338 2.145 21.239 21.239 0 0 1-9.257-3.293 20.914 20.914 0 0 1-6.436-6.436 21.221 21.221 0 0 1-3.293-9.3 2.144 2.144 0 0 1 2.134-2.338h3.218a2.144 2.144 0 0 1 2.145 1.845c.136 1.03.388 2.041.751 3.014a2.144 2.144 0 0 1-.483 2.263l-1.362 1.362a17.162 17.162 0 0 0 6.436 6.436l1.362-1.362a2.146 2.146 0 0 1 2.263-.483c.973.363 1.984.615 3.014.751a2.144 2.144 0 0 1 1.845 2.177z"
      />
    </symbol>
    <symbol
      id="mail"
      viewBox="0 0 32 32"
    >
      <path
        stroke-linejoin="round"
        stroke-linecap="round"
        stroke-width="1.333"
        d="M6.4 6.667h19.2c1.32 0 2.4 1.05 2.4 2.333v14c0 1.283-1.08 2.333-2.4 2.333H6.4C5.08 25.333 4 24.283 4 23V9c0-1.283 1.08-2.333 2.4-2.333z"
      />
      <path
        stroke-linejoin="round"
        stroke-linecap="round"
        stroke-width="1.333"
        d="m26.667 9.333-10.667 8-10.667-8"
      />
    </symbol>
    <symbol
      id="close"
      viewBox="0 0 320 512"
    >
      <path
        d="M310.6 150.6c12.5-12.5 12.5-32.8 0-45.3s-32.8-12.5-45.3 0L160 210.7 54.6 105.4c-12.5-12.5-32.8-12.5-45.3 0s-12.5 32.8 0 45.3L114.7 256 9.4 361.4c-12.5 12.5-12.5 32.8 0 45.3s32.8 12.5 45.3 0L160 301.3l105.4 105.3c12.5 12.5 32.8 12.5 45.3 0s12.5-32.8 0-45.3L205.3 256l105.3-105.4z"
      />
    </symbol>
    <symbol
      id="avatar"
      viewBox="0 0 576 512"
    >
      <path
        d="M0 96h576c0-35.3-28.7-64-64-64H64C28.7 32 0 60.7 0 96zm0 32v288c0 35.3 28.7 64 64 64h448c35.3 0 64-28.7 64-64V128H0zm64 277.3c0-29.5 23.9-53.3 53.3-53.3h117.4c29.5 0 53.3 23.9 53.3 53.3 0 5.9-4.8 10.7-10.7 10.7H74.7c-5.9 0-10.7-4.8-10.7-10.7zM176 192a64 64 0 1 1 0 128 64 64 0 1 1 0-128zm176 16c0-8.8 7.2-16 16-16h128c8.8 0 16 7.2 16 16s-7.2 16-16 16H368c-8.8 0-16-7.2-16-16zm0 64c0-8.8 7.2-16 16-16h128c8.8 0 16 7.2 16 16s-7.2 16-16 16H368c-8.8 0-16-7.2-16-16zm0 64c0-8.8 7.2-16 16-16h128c8.8 0 16 7.2 16 16s-7.2 16-16 16H368c-8.8 0-16-7.2-16-16z"
      />
    </symbol>
    <symbol
      id="phone"
      viewBox="0 0 384 512"
    >
      <path
        d="M0 64C0 28.7 28.7 0 64 0h224c35.3 0 64 28.7 64 64v384c0 35.3-28.7 64-64 64H64c-35.3 0-64-28.7-64-64V64zm208 384a32 32 0 1 0-64 0 32 32 0 1 0 64 0zm80-384H64v320h224V64z"
      />
    </symbol>
    <symbol
      id="mail"
      viewBox="0 0 512 512"
    >
      <path
        d="M48 64C21.5 64 0 85.5 0 112c0 15.1 7.1 29.3 19.2 38.4l217.6 163.2c11.4 8.5 27 8.5 38.4 0l217.6-163.2c12.1-9.1 19.2-23.3 19.2-38.4 0-26.5-21.5-48-48-48H48zM0 176v208c0 35.3 28.7 64 64 64h384c35.3 0 64-28.7 64-64V176L294.4 339.2a63.9 63.9 0 0 1-76.8 0L0 176z"
      />
    </symbol>

    <symbol
      id="icon-mail"
      viewBox="0 0 640 512"
    >
      <path
        d="M48 64C21.5 64 0 85.5 0 112c0 15.1 7.1 29.3 19.2 38.4L236.8 313.6c11.4 8.5 27 8.5 38.4 0l57.4-43c23.9-59.8 79.7-103.3 146.3-109.8l13.9-10.4c12.1-9.1 19.2-23.3 19.2-38.4c0-26.5-21.5-48-48-48H48zM294.4 339.2c-22.8 17.1-54 17.1-76.8 0L0 176V384c0 35.3 28.7 64 64 64H360.2C335.1 417.6 320 378.5 320 336c0-5.6 .3-11.1 .8-16.6l-26.4 19.8zM640 336a144 144 0 1 0 -288 0 144 144 0 1 0 288 0zm-76.7-43.3c6.2 6.2 6.2 16.4 0 22.6l-72 72c-6.2 6.2-16.4 6.2-22.6 0l-40-40c-6.2-6.2-6.2-16.4 0-22.6s16.4-6.2 22.6 0L480 353.4l60.7-60.7c6.2-6.2 16.4-6.2 22.6 0z"
      />
    </symbol>
  </defs>
</svg>
